<?xml version="1.0"?>
<svg width="140" height="32" xmlns="http://www.w3.org/2000/svg" xmlns:svg="http://www.w3.org/2000/svg">
 <defs>
  <linearGradient id="paint0_linear_8_94" x1="0" x2="1.01" y1="0" y2="0.03">
   <stop stop-color="#5A0DFF"/>
   <stop offset="0.4" stop-color="#FF29B8"/>
   <stop offset="1" stop-color="#FF581C"/>
  </linearGradient>
 </defs>
 <g class="layer">
  <title>Layer 1</title>
  <path clip-rule="evenodd" d="m25.62,10.08c4.31,2.48 4.31,8.7 0,11.19l-15.92,9.2c-4.31,2.49 -9.7,-0.62 -9.7,-5.6l0,-18.4c0,-4.97 5.39,-8.08 9.7,-5.59l15.92,9.2zm-11.47,7.38c-3.21,0.01 -5.14,-2.42 -5.15,-5.63c0,-3.21 -3.65,-6.34 -3.83,-3.13c0,0.05 0,0.1 0,0.15l0,13.63c0,1.96 2.12,3.18 3.82,2.2l11.81,-6.81c0.84,-0.49 -1.62,-0.46 -4.53,-0.43c-0.7,0.01 -1.42,0.02 -2.12,0.02z" fill="url(#paint0_linear_8_94)" fill-rule="evenodd" id="svg_6"/>
  <text fill="#ffffff" font-family="Fantasy" font-size="24" id="svg_7" lengthAdjust="spacing" letter-spacing="0" stroke-width="0" text-anchor="middle" textLength="0" word-spacing="0" x="83.21" xml:space="preserve" y="24.68">Zen Medya</text>
 </g>
</svg>